<svg width="30" height="22" viewBox="0 0 30 22" fill="none" xmlns="http://www.w3.org/2000/svg">
<g id="camera">
<g id="Icon">
<path d="M28.783 17.5304C28.783 18.0021 28.5269 18.4544 28.0711 18.7879C27.6153 19.1215 26.9971 19.3088 26.3524 19.3088H4.47743C3.83281 19.3088 3.21459 19.1215 2.75877 18.7879C2.30295 18.4544 2.04688 18.0021 2.04688 17.5304V7.74887C2.04688 7.2772 2.30295 6.82484 2.75877 6.49131C3.21459 6.15779 3.83281 5.97042 4.47743 5.97042H9.33854L11.7691 3.30273H19.0608L21.4913 5.97042H26.3524C26.9971 5.97042 27.6153 6.15779 28.0711 6.49131C28.5269 6.82484 28.783 7.2772 28.783 7.74887V17.5304Z" stroke="#737373" stroke-width="2" stroke-linecap="round" stroke-linejoin="round"/>
<path d="M15.4149 15.7519C18.0996 15.7519 20.276 14.1594 20.276 12.195C20.276 10.2306 18.0996 8.6381 15.4149 8.6381C12.7302 8.6381 10.5538 10.2306 10.5538 12.195C10.5538 14.1594 12.7302 15.7519 15.4149 15.7519Z" stroke="#737373" stroke-width="2" stroke-linecap="round" stroke-linejoin="round"/>
</g>
</g>
</svg>
